<svg xmlns="http://www.w3.org/2000/svg" viewBox="0 0 640 640" role="img" aria-labelledby="title desc">
  <title id="title">Dormant celestial finale mechanism</title>
  <desc id="desc">Original brass, stone, and moonlit glass rings surrounding a sealed core and symbolic requirement sockets.</desc>
  <defs><radialGradient id="core"><stop stop-color="#8bd9d1" stop-opacity=".65"/><stop offset=".45" stop-color="#153b3d"/><stop offset="1" stop-color="#08181b"/></radialGradient><filter id="glow"><feGaussianBlur stdDeviation="6" result="b"/><feMerge><feMergeNode in="b"/><feMergeNode in="SourceGraphic"/></feMerge></filter></defs>
  <circle cx="320" cy="320" r="304" fill="#0b1719" stroke="#755d34" stroke-width="10"/>
  <g fill="none" stroke="#b3975d">
    <circle cx="320" cy="320" r="254" stroke-width="18" stroke-dasharray="36 12"/>
    <circle cx="320" cy="320" r="202" stroke-width="8" stroke-dasharray="5 15"/>
    <circle cx="320" cy="320" r="146" stroke-width="16" stroke-dasharray="64 24"/>
  </g>
  <g fill="#17282a" stroke="#d0b571" stroke-width="6">
    <circle cx="320" cy="66" r="25"/><circle cx="500" cy="140" r="25"/><circle cx="574" cy="320" r="25"/><circle cx="500" cy="500" r="25"/><circle cx="320" cy="574" r="25"/><circle cx="140" cy="500" r="25"/><circle cx="66" cy="320" r="25"/><circle cx="140" cy="140" r="25"/>
  </g>
  <path d="M320 90L364 276 550 320 364 364 320 550 276 364 90 320 276 276z" fill="none" stroke="#557f7c" stroke-width="4"/>
  <circle cx="320" cy="320" r="102" fill="url(#core)" stroke="#d2b66d" stroke-width="9" filter="url(#glow)"/>
  <path d="M270 320a50 50 0 01100 0v56H270z" fill="#7d2d2a" stroke="#d0b571" stroke-width="7"/><circle cx="320" cy="344" r="12" fill="#e1ca89"/>
  <g fill="#d9c98e"><circle cx="320" cy="24" r="4"/><circle cx="530" cy="90" r="3"/><circle cx="590" cy="450" r="4"/><circle cx="130" cy="570" r="3"/><circle cx="54" cy="160" r="4"/></g>
</svg>
