<svg xmlns="http://www.w3.org/2000/svg" viewBox="0 0 512 512">
  <defs>
    <linearGradient id="wax" x1="70" y1="62" x2="435" y2="448" gradientUnits="userSpaceOnUse"><stop stop-color="#B94A55"/><stop offset=".42" stop-color="#7B1E2B"/><stop offset="1" stop-color="#42101B"/></linearGradient>
    <linearGradient id="brass" x1="156" y1="145" x2="355" y2="370" gradientUnits="userSpaceOnUse"><stop stop-color="#FFF1A1"/><stop offset=".22" stop-color="#D4AF37"/><stop offset=".6" stop-color="#8A5A16"/><stop offset="1" stop-color="#E3C15A"/></linearGradient>
    <radialGradient id="heat" cx="256" cy="232" r="168" gradientUnits="userSpaceOnUse"><stop stop-color="#F8D26A" stop-opacity=".65"/><stop offset=".45" stop-color="#E6A847" stop-opacity=".17"/><stop offset="1" stop-color="#5D1422" stop-opacity="0"/></radialGradient>
  </defs>
  <path fill="#24131B" d="M92 250C92 155 165 91 257 91s166 65 166 160c0 94-74 170-166 170S92 346 92 250Z"/>
  <path fill="#3B1620" d="M73 257c2-21 15-38 18-58 4-20-2-42 8-60 10-18 31-27 44-43 13-16 19-38 37-49 18-10 40-5 60-12 19-7 34-26 56-25 21 1 36 20 55 28 20 8 43 5 60 18 17 13 20 36 32 53 11 17 32 28 36 49 4 21-11 40-12 61-1 21 12 41 5 61-7 20-29 31-43 47-14 16-20 39-39 49-19 10-41 3-62 9-20 6-36 24-57 21-21-3-34-24-53-33-19-8-42-6-58-20-15-14-17-38-29-56-12-17-32-30-33-51-1-21 16-39 18-59Z"/>
  <path fill="url(#wax)" d="M89 253c3-20 16-36 20-56 4-19-3-40 8-57 11-17 31-24 45-39 14-15 22-36 40-45 18-9 38-2 58-8 20-6 37-23 57-19 19 4 31 23 49 33 18 10 40 10 55 25 15 15 14 38 25 56 10 18 30 31 31 51 1 20-15 38-17 58-2 20 9 41 0 59-9 18-31 26-45 41-14 15-22 36-42 43-19 7-38-3-58 1-20 4-38 20-57 13-19-7-28-28-45-40-17-12-39-15-50-33-11-17-6-39-13-58-7-19-24-35-21-55Z"/>
  <path fill="#C55B63" opacity=".45" d="M151 142c30-34 85-55 135-44-55 2-111 29-138 77-15 27-17 59-10 89-18-39-14-88 13-122Z"/>
  <path fill="#2F0B14" opacity=".58" d="M400 303c-25 47-72 78-122 85 43-18 76-51 92-94 14-37 13-79-1-114 27 37 47 80 31 123Z"/>
  <path fill="url(#heat)" d="M113 256c0-79 64-143 143-143s143 64 143 143-64 143-143 143-143-64-143-143Z"/>
  <path fill="#5A141F" d="M136 256c0-67 54-121 120-121s120 54 120 121-54 121-120 121-120-54-120-121Z"/>
  <path fill="url(#brass)" d="M151 256c0-58 47-105 105-105s105 47 105 105-47 105-105 105-105-47-105-105Z"/>
  <path fill="#71431A" d="M167 256c0-49 40-89 89-89s89 40 89 89-40 89-89 89-89-40-89-89Zm13 0c0 42 34 76 76 76s76-34 76-76-34-76-76-76-76 34-76 76Z"/>
  <path fill="#FFF0A4" opacity=".6" d="m256 178 8 54 36-40-20 50 53-6-48 22 40 35-52-19 7 54-24-48-24 48 7-54-52 19 40-35-48-22 53 6-20-50 36 40Z"/>
  <path fill="#502C17" d="M256 194 270 238 316 256 270 274 256 318 242 274 196 256 242 238Z"/>
  <path fill="#D4AF37" d="M256 207 266 246 305 256 266 266 256 305 246 266 207 256 246 246Z"/>
  <path fill="#7B1E2B" d="M247 244h18v38h-18z"/><path fill="#7B1E2B" d="M236 260h40v16h-40z"/>
  <path fill="#FFF3B0" d="M251 231h10v20h-10z"/><path fill="#FFF3B0" d="M245 246h22v8h-22z"/>
  <g fill="#4D2E16">
    <path d="m256 159 6 13-6 13-6-13zM353 256l-13 6-13-6 13-6zM256 353l-6-13 6-13 6 13zM159 256l13-6 13 6-13 6z"/>
    <path d="m204 174 11 9-4 14-11-9zM338 204l-9 11-14-4 9-11zM308 338l-11-9 4-14 11 9zM174 308l9-11 14 4-9 11z"/>
  </g>
  <g fill="#F0C759"><circle cx="256" cy="145" r="4"/><circle cx="367" cy="256" r="4"/><circle cx="256" cy="367" r="4"/><circle cx="145" cy="256" r="4"/></g>
  <path fill="#6F1A28" d="m141 318 43-35 10 7-31 45-14-8zM371 203l-38 30-8-8 26-39 15 8zM215 372l18-47 11 3-7 52-17-1z"/>
  <path fill="#2B0B13" d="m329 136-16 52-10-2 4-55 22 5zM107 226l50 18-2 10-55-7 7-21zM362 350l-46-24 4-10 52 13-10 21z"/>
  <path fill="#F6B85A" opacity=".7" d="M178 174c22-23 51-37 82-37 16 0 32 4 46 10-21-2-44 2-64 13-24 13-43 35-53 60-8-15-14-30-11-46Z"/>
</svg>
