<svg xmlns="http://www.w3.org/2000/svg" viewBox="0 0 512 512">
  <defs>
    <linearGradient id="leather" x1="42" y1="48" x2="458" y2="458" gradientUnits="userSpaceOnUse"><stop stop-color="#4B2A1D"/><stop offset=".45" stop-color="#1B1515"/><stop offset="1" stop-color="#0C0A0B"/></linearGradient>
    <linearGradient id="metal" x1="155" y1="110" x2="356" y2="394" gradientUnits="userSpaceOnUse"><stop stop-color="#FFF1A5"/><stop offset=".16" stop-color="#D6B451"/><stop offset=".44" stop-color="#80561D"/><stop offset=".7" stop-color="#2C2920"/><stop offset="1" stop-color="#C99B36"/></linearGradient>
    <linearGradient id="patina" x1="190" y1="210" x2="318" y2="340" gradientUnits="userSpaceOnUse"><stop stop-color="#2B776F"/><stop offset="1" stop-color="#0E3433"/></linearGradient>
  </defs>
  <rect x="42" y="70" width="428" height="372" rx="42" fill="#0A0809"/>
  <rect x="54" y="82" width="404" height="348" rx="33" fill="url(#leather)"/>
  <path fill="#75442B" opacity=".55" d="M78 111c87-30 259-29 354 7-87-14-265-10-354 31z"/>
  <path fill="#08090B" d="M74 352c93 20 271 22 367-2v48c-99 22-268 17-367-4z"/>
  <path fill="#A56836" opacity=".5" d="M70 188c100-19 273-19 370 0v12c-105-13-270-13-370 0zM70 314c100 20 273 20 370 0v13c-107 14-265 14-370 0z"/>
  <path fill="#181116" d="M193 58h126v396H193z"/>
  <path fill="#5D3825" d="M204 66h104v380H204z"/>
  <path fill="#9A6036" opacity=".65" d="M212 75h10v360h-10zM290 75h8v360h-8z"/>
  <path fill="#07080A" d="M113 199h286v126H113z"/>
  <path fill="url(#metal)" d="M126 210h260v105H126z"/>
  <path fill="#4E3519" d="M141 226h230v73H141z"/>
  <path fill="#15191A" d="M158 237h196v51H158z"/>
  <path fill="url(#patina)" d="M168 246h176v33H168z"/>
  <path fill="#D9B956" d="M178 251h156v6H178zM178 268h156v5H178z"/>
  <path fill="#C79B35" d="M210 156h92v72h-92z"/>
  <path fill="#3A2819" d="M218 164h76v56h-76z"/>
  <path fill="#D8B44C" d="m256 169 9 17 18 4-13 13 3 18-17-8-17 8 3-18-13-13 18-4z"/>
  <path fill="#1A1C1D" d="M148 176h51v47h-51zM313 176h51v47h-51z"/>
  <path fill="url(#metal)" d="M156 184h35v31h-35zM321 184h35v31h-35z"/>
  <circle cx="173" cy="199" r="8" fill="#2B776F"/><circle cx="339" cy="199" r="8" fill="#2B776F"/>
  <path fill="#2B2218" d="M104 227h31v80h-31zM377 227h31v80h-31z"/>
  <path fill="#D9B754" d="M109 236h17v62h-17zM386 236h17v62h-17z"/>
  <path fill="#0A0C0D" d="M233 291h46v101h-46z"/>
  <path fill="url(#metal)" d="M239 297h34v86h-34z"/>
  <path fill="#322919" d="M246 304h20v59h-20z"/>
  <path fill="#DDBB55" d="M248 370h16v8h-16z"/>
  <path fill="#6D4821" d="M221 393h70v23h-70z"/><path fill="#C69A33" d="M229 398h54v10h-54z"/>
  <g fill="#F5D876"><circle cx="132" cy="221" r="5"/><circle cx="380" cy="221" r="5"/><circle cx="132" cy="314" r="5"/><circle cx="380" cy="314" r="5"/></g>
  <g fill="#382016" opacity=".8"><path d="m74 149 74-18 4 7-74 20zM361 386l74-21 3 9-73 21zM81 374l70-20 4 8-70 22z"/></g>
  <path fill="#EACB67" opacity=".45" d="M137 213h240l-10 9H147z"/>
</svg>
