<svg xmlns="http://www.w3.org/2000/svg" viewBox="0 0 640 640">
  <defs>
    <radialGradient id="core" cx="320" cy="299" r="181" gradientUnits="userSpaceOnUse"><stop stop-color="#FFF6B3"/><stop offset=".15" stop-color="#F5C35B"/><stop offset=".42" stop-color="#2E968E"/><stop offset=".72" stop-color="#123D41"/><stop offset="1" stop-color="#101518"/></radialGradient>
    <linearGradient id="brass" x1="128" y1="80" x2="521" y2="556" gradientUnits="userSpaceOnUse"><stop stop-color="#FFF0A1"/><stop offset=".16" stop-color="#D2A941"/><stop offset=".45" stop-color="#735018"/><stop offset=".71" stop-color="#1B2929"/><stop offset="1" stop-color="#E0B84D"/></linearGradient>
    <linearGradient id="iron" x1="158" y1="120" x2="487" y2="520" gradientUnits="userSpaceOnUse"><stop stop-color="#53615C"/><stop offset=".42" stop-color="#202A2B"/><stop offset="1" stop-color="#0B0F11"/></linearGradient>
  </defs>
  <rect width="640" height="640" rx="52" fill="#090D10"/>
  <path fill="#172023" d="M61 321 125 204l130-75h130l130 75 64 117-64 115-130 75H255l-130-75z"/>
  <path fill="#314143" d="M82 321 138 219l117-67h130l117 67 56 102-56 99-117 67H255l-117-67z"/>
  <circle cx="320" cy="321" r="236" fill="url(#iron)"/>
  <circle cx="320" cy="321" r="220" fill="url(#brass)"/>
  <circle cx="320" cy="321" r="201" fill="#172729"/>
  <path fill="#BD9340" d="M320 113c115 0 208 93 208 208s-93 208-208 208-208-93-208-208 93-208 208-208Zm0 15c-106 0-193 87-193 193s87 193 193 193 193-87 193-193-87-193-193-193Z"/>
  <path fill="url(#brass)" d="M320 146c96 0 175 79 175 175s-79 175-175 175-175-79-175-175 79-175 175-175Zm0 19c-86 0-156 70-156 156s70 156 156 156 156-70 156-156-70-156-156-156Z"/>
  <path fill="#0C171A" d="M320 179c78 0 142 64 142 142s-64 142-142 142-142-64-142-142 64-142 142-142Z"/>
  <path fill="#D1AC4F" d="m320 170 13 86-13 27-13-27zM471 321l-86 13-27-13 27-13zM320 472l-13-86 13-27 13 27zM169 321l86-13 27 13-27 13z"/>
  <path fill="#2B776F" d="m320 197 9 71-9 17-9-17zM444 321l-71 9-17-9 17-9zM320 445l-9-71 9-17 9 17zM196 321l71-9 17 9-17 9z"/>
  <g fill="#D5B451"><circle cx="320" cy="122" r="10"/><circle cx="519" cy="321" r="10"/><circle cx="320" cy="520" r="10"/><circle cx="121" cy="321" r="10"/></g>
  <g fill="#183E3D"><circle cx="421" cy="220" r="15"/><circle cx="421" cy="422" r="15"/><circle cx="219" cy="422" r="15"/><circle cx="219" cy="220" r="15"/></g>
  <g fill="#DFBD58"><circle cx="421" cy="220" r="7"/><circle cx="421" cy="422" r="7"/><circle cx="219" cy="422" r="7"/><circle cx="219" cy="220" r="7"/></g>
  <path fill="#2E968E" d="M320 199c67 0 122 55 122 122h-14c0-59-48-108-108-108zM442 321c0 67-55 122-122 122v-14c59 0 108-48 108-108zM320 443c-67 0-122-55-122-122h14c0 59 48 108 108 108zM198 321c0-67 55-122 122-122v14c-59 0-108 48-108 108z"/>
  <circle cx="320" cy="321" r="100" fill="#151E21"/><circle cx="320" cy="321" r="88" fill="url(#core)"/>
  <path fill="#FFF0A3" d="m320 230 17 61 61 30-61 28-17 62-17-62-61-28 61-30z"/>
  <path fill="#B1383E" d="m320 253 9 53 46 15-46 15-9 52-9-52-46-15 46-15z"/>
  <path fill="#F6D36B" d="m320 271 5 41 34 9-34 9-5 39-5-39-34-9 34-9z"/>
  <path fill="#131A1B" d="M282 282h76v78h-76z"/><path fill="#D6B451" d="M291 291h58v60h-58z"/><path fill="#2B776F" d="M300 300h40v42h-40z"/>
  <path fill="#E9C760" d="m320 305 7 12 13 4-13 4-7 12-7-12-13-4 13-4z"/>
  <g fill="#5E431B"><path d="m101 286 43 8-5 15-44-8zM496 286l43-8 6 15-44 8zM101 356l43-8 5 15-43 8zM496 356l43 8-6 15-43-8z"/></g>
  <g fill="#D6B451"><path d="m145 171 25 23-11 11-25-23zM470 171l25 11-11 23-25-11zM470 471l14-23 11 11-14 24zM145 471l14-23 11 11-14 24z"/></g>
  <path fill="#F5D874" opacity=".45" d="M201 172c59-43 149-49 215-10-75-21-161-1-213 52-17-10-12-30-2-42z"/>
</svg>
