<svg xmlns="http://www.w3.org/2000/svg" viewBox="0 0 240 240"><defs><radialGradient id="w"><stop stop-color="#bd5146"/><stop offset="1" stop-color="#6e2021"/></radialGradient></defs><path d="M120 18l24 14 28-4 14 24 27 10 1 28 18 22-12 25 5 28-23 16-8 27-28 2-21 19-25-12-27 9-18-22-28-6-4-28-20-20 9-26-8-27 22-18 6-27 28-4 19-20 26 10z" fill="url(#w)" stroke="#e0a068" stroke-width="5"/><circle cx="120" cy="120" r="63" fill="none" stroke="#e2aa70" stroke-width="7"/><path d="M94 168V74h68v18h-45v20h38v18h-38v38z" fill="#e9bd82"/></svg>
